<svg width="228" height="38" viewBox="0 0 228 38" fill="none" xmlns="http://www.w3.org/2000/svg">
<g id="Group">
<g id="Group_2">
<path id="Vector" d="M37.7923 17.221C37.6159 15.3119 37.1573 13.4573 36.4325 11.7023C36.378 11.5739 36.2401 11.5065 36.1054 11.5418C35.9707 11.5771 35.8841 11.7087 35.9033 11.8466C35.9418 12.1097 35.9707 12.3728 35.9931 12.6231C36.8142 21.5173 30.2461 29.42 21.3561 30.2414C20.9071 30.2831 20.4613 30.3056 20.0187 30.3088C11.6868 30.3922 4.52537 24.0424 3.74606 15.5975C3.43818 12.2573 4.15336 8.96212 5.81783 6.06157C5.88838 5.93965 5.85631 5.78885 5.74406 5.70543C5.63181 5.622 5.47788 5.63484 5.38166 5.7343C1.50432 9.71614 -0.429545 15.1707 0.0803786 20.7023C0.991186 30.5783 9.36805 38.0061 19.1111 37.9067C19.6275 37.9002 20.1502 37.8746 20.6762 37.8265C31.0703 36.8671 38.7512 27.6232 37.7923 17.221Z" fill="#CE123C"/>
<path id="Vector_2" d="M29.6912 4.89047C26.7407 1.45087 22.2893 -0.355552 17.7802 0.0583536C14.06 0.401671 10.6957 2.1728 8.30647 5.05089C5.9172 7.92578 4.79152 11.5611 5.13468 15.283C5.5516 19.7911 8.1397 23.8403 12.0587 26.1152C12.1036 26.1409 12.1517 26.1537 12.1999 26.1537C12.28 26.1537 12.357 26.1184 12.4083 26.0542C12.4949 25.9515 12.4917 25.8007 12.4051 25.6981C10.5867 23.5772 9.48667 20.9783 9.23011 18.1868C8.89978 14.6092 9.98377 11.1215 12.2768 8.35893C14.5699 5.59635 17.8026 3.89581 21.3785 3.56532C24.1718 3.30864 26.9235 3.91185 29.3416 5.314C29.4571 5.38138 29.6046 5.35571 29.6912 5.25304C29.781 5.14394 29.7778 4.99314 29.6912 4.89047Z" fill="#878991"/>
<path id="Vector_3" d="M63.0993 17.2691C62.1404 6.86695 52.9009 -0.814377 42.5035 0.144987C32.1062 1.10435 24.4285 10.3483 25.3874 20.7505C25.5638 22.6596 26.0224 24.5141 26.7472 26.2692C26.8017 26.3975 26.9396 26.4649 27.0743 26.4296C27.209 26.3943 27.2956 26.2628 27.2764 26.1248C27.2379 25.8617 27.209 25.5986 27.1866 25.3483C26.3656 16.4542 32.9336 8.55146 41.8236 7.73006C50.7168 6.90867 58.6127 13.4798 59.4337 22.374C59.7415 25.7141 59.0264 29.0093 57.3619 31.9099C57.2913 32.0318 57.3234 32.1826 57.4357 32.266C57.487 32.3045 57.5447 32.3238 57.6056 32.3206C57.6762 32.3206 57.7467 32.2917 57.8013 32.2372C61.6754 28.2553 63.6093 22.8007 63.0993 17.2691Z" fill="#CE123C"/>
<path id="Vector_4" d="M58.0418 22.6885C57.6248 18.1804 55.0367 14.1312 51.1177 11.8563C51.0023 11.7889 50.8547 11.8146 50.7681 11.9173C50.6815 12.0199 50.6848 12.1707 50.7713 12.2734C52.5898 14.3943 53.6898 16.9932 53.9463 19.7847C54.2767 23.3623 53.1927 26.85 50.8996 29.6126C48.6066 32.3751 45.3738 34.0757 41.798 34.4062C39.0046 34.6628 36.2529 34.0596 33.8348 32.6575C33.7194 32.5901 33.5718 32.6158 33.4852 32.7185C33.3986 32.8211 33.4019 32.9719 33.4884 33.0746C36.192 36.2254 40.1495 38.0062 44.2578 37.9645C44.6362 37.9613 45.0179 37.942 45.3963 37.9067C49.1165 37.5634 52.4807 35.7923 54.87 32.9142C57.2592 30.0457 58.3849 26.4104 58.0418 22.6885Z" fill="#878991"/>
</g>
<g id="Group_3">
<path id="Vector_5" d="M147.035 11.144C145.492 10.2713 144.158 9.51727 144.158 8.33009C144.158 7.3964 145.104 6.74184 146.454 6.74184C147.795 6.74184 149.087 7.31939 150.29 8.46165L151.207 9.33117V4.85521L150.967 4.69478C149.639 3.80921 148.151 3.34076 146.666 3.34076C143.084 3.34076 140.678 5.48409 140.678 8.67341C140.678 11.6125 143.096 13.0756 145.229 14.3686C146.951 15.4114 148.436 16.3098 148.436 17.728C148.436 18.3922 147.792 19.4478 146.06 19.4478C144.466 19.4478 142.978 18.62 141.753 17.051L140.781 15.8061V20.9173L140.996 21.081C142.593 22.2874 144.293 22.8489 146.348 22.8489C149.523 22.8489 151.916 20.5227 151.916 17.436C151.916 13.9034 149.209 12.3729 147.035 11.144Z" fill="#878991"/>
<path id="Vector_6" d="M162.685 3.33752C156.887 3.33752 152.512 7.53113 152.512 13.0916C152.512 18.652 156.861 22.8456 162.631 22.8456C169.359 22.8456 172.881 17.9397 172.881 13.0916C172.881 7.44129 168.593 3.33752 162.685 3.33752ZM169.138 13.0916C169.138 16.7397 166.425 19.39 162.685 19.39C158.962 19.39 156.258 16.7397 156.258 13.0916C156.258 9.44344 158.962 6.79315 162.685 6.79315C166.425 6.79315 169.138 9.44344 169.138 13.0916Z" fill="#878991"/>
<path id="Vector_7" d="M183.316 10.621L177.63 3.57495H174.407V22.6082H178.073V9.5814L182.842 15.5814H183.788L188.56 9.5814V22.6082H192.226V3.57495H189.028L183.316 10.621Z" fill="#878991"/>
<path id="Vector_8" d="M200.304 3.57495H194.156V22.6082H197.822V14.8467H199.961C202.081 14.8467 203.745 14.3076 204.91 13.2488C205.984 12.2702 206.555 10.8969 206.555 9.27659C206.555 6.52043 204.913 3.57495 200.304 3.57495ZM197.822 6.97925H200.304C202.376 6.97925 202.812 8.17284 202.812 9.17392C202.812 10.6178 201.86 11.4456 200.198 11.4456H197.822V6.97925Z" fill="#878991"/>
<path id="Vector_9" d="M217.5 3.33752C211.702 3.33752 207.328 7.53113 207.328 13.0916C207.328 18.652 211.676 22.8456 217.446 22.8456C224.174 22.8456 227.696 17.9397 227.696 13.0916C227.699 7.44129 223.411 3.33752 217.5 3.33752ZM223.956 13.0916C223.956 16.7397 221.243 19.39 217.504 19.39C213.78 19.39 211.077 16.7397 211.077 13.0916C211.077 9.44344 213.78 6.79315 217.504 6.79315C221.24 6.79315 223.956 9.44344 223.956 13.0916Z" fill="#878991"/>
<path id="Vector_10" fill-rule="evenodd" clip-rule="evenodd" d="M109.9 3.34076L102.296 14.8082L94.6087 3.34076H86.6167L98.8324 21.3697V34.4126H105.68V21.3697L117.895 3.34076H109.9Z" fill="#CE123C"/>
<path id="Vector_11" fill-rule="evenodd" clip-rule="evenodd" d="M127.423 3.34076H121.625L108.297 34.3677H115.298L118.421 27.1035H130.291L133.039 34.4158H140.678L127.423 3.34076ZM119.252 22.1109L124.258 10.2103L129.268 22.1109H119.252Z" fill="#CE123C"/>
<path id="Vector_12" fill-rule="evenodd" clip-rule="evenodd" d="M77.6819 3.34088L64.3533 34.3678H71.3575L74.4812 27.1036H86.3506L89.099 34.4159H96.7383L83.4802 3.34409H77.6819V3.34088ZM75.3086 22.111L80.3149 10.2104L85.3243 22.111H75.3086Z" fill="#CE123C"/>
<path id="Vector_13" d="M146.948 26.3783C146.948 27.1868 146.288 27.8478 145.479 27.8478C144.671 27.8478 144.01 27.1868 144.01 26.3783C144.01 25.5697 144.671 24.9088 145.479 24.9088C146.288 24.9088 146.948 25.5697 146.948 26.3783Z" fill="#CE123C"/>
<path id="Vector_14" d="M158.58 34.4254H155.659V29.1441C155.659 27.6713 155.133 26.9366 154.081 26.9366C153.574 26.9366 153.157 27.1323 152.83 27.5205C152.503 27.912 152.339 28.4061 152.339 29.0061V34.4254H149.408V24.9216H152.339V26.4264H152.378C153.077 25.2681 154.093 24.6906 155.431 24.6906C157.535 24.6906 158.583 25.9964 158.583 28.6082V34.4254H158.58Z" fill="#CE123C"/>
<path id="Vector_15" d="M160.277 34.1751V31.8008C160.758 32.0928 161.239 32.3077 161.72 32.4489C162.198 32.5901 162.653 32.6639 163.08 32.6639C163.599 32.6639 164.01 32.5933 164.308 32.4489C164.606 32.3077 164.757 32.0895 164.757 31.8008C164.757 31.6147 164.69 31.4607 164.552 31.3355C164.417 31.2104 164.241 31.1045 164.029 31.0115C163.814 30.9184 163.583 30.835 163.33 30.7612C163.077 30.6874 162.833 30.604 162.595 30.5109C162.217 30.3698 161.887 30.2157 161.598 30.0521C161.309 29.8885 161.069 29.6992 160.876 29.481C160.681 29.266 160.533 29.0125 160.431 28.7302C160.328 28.4446 160.277 28.1077 160.277 27.7195C160.277 27.1868 160.392 26.7312 160.623 26.3462C160.854 25.9644 161.165 25.6499 161.55 25.4061C161.938 25.1622 162.377 24.9826 162.878 24.8671C163.375 24.7515 163.894 24.6938 164.43 24.6938C164.85 24.6938 165.277 24.7259 165.71 24.79C166.142 24.8542 166.569 24.9505 166.989 25.0724V27.3376C166.617 27.1227 166.219 26.959 165.796 26.8499C165.373 26.7409 164.956 26.6863 164.549 26.6863C164.356 26.6863 164.177 26.7024 164.007 26.7376C163.837 26.7729 163.686 26.8211 163.558 26.8852C163.429 26.9494 163.327 27.0328 163.253 27.1355C163.179 27.2382 163.141 27.3537 163.141 27.482C163.141 27.6553 163.195 27.8029 163.307 27.928C163.42 28.0532 163.564 28.159 163.744 28.2489C163.923 28.3387 164.122 28.4189 164.343 28.4895C164.561 28.5601 164.779 28.6339 164.998 28.7077C165.386 28.8425 165.738 28.9933 166.056 29.1537C166.37 29.3141 166.643 29.5034 166.867 29.7184C167.092 29.9366 167.265 30.1901 167.387 30.4788C167.509 30.7708 167.566 31.1173 167.566 31.5184C167.566 32.0831 167.445 32.5612 167.201 32.9623C166.957 33.3601 166.633 33.6842 166.226 33.9377C165.822 34.188 165.354 34.3708 164.824 34.4864C164.295 34.6019 163.747 34.6596 163.179 34.6596C162.137 34.6596 161.168 34.4992 160.277 34.1751Z" fill="#CE123C"/>
<path id="Vector_16" d="M178.281 34.4254H175.36V32.9783H175.312C174.587 34.0981 173.621 34.6596 172.409 34.6596C170.209 34.6596 169.106 33.3248 169.106 30.6585V24.9248H172.027V30.3986C172.027 31.7398 172.56 32.4136 173.621 32.4136C174.147 32.4136 174.567 32.2307 174.882 31.8617C175.196 31.4928 175.353 30.9954 175.353 30.3633V24.9248H178.275V34.4254H178.281Z" fill="#CE123C"/>
<path id="Vector_17" d="M186.944 27.5687C186.591 27.3761 186.18 27.2799 185.709 27.2799C185.071 27.2799 184.574 27.5141 184.214 27.9794C183.855 28.4478 183.676 29.0831 183.676 29.8852V34.4222H180.744V24.9184H183.676V26.6831H183.714C184.179 25.3965 185.013 24.7515 186.219 24.7515C186.527 24.7515 186.77 24.79 186.944 24.8638V27.5687Z" fill="#CE123C"/>
<path id="Vector_18" d="M196.209 34.4254H193.435V33.0617H193.396C192.758 34.127 191.815 34.6564 190.567 34.6564C189.647 34.6564 188.922 34.3965 188.393 33.8735C187.864 33.3505 187.601 32.6543 187.601 31.7815C187.601 29.9366 188.691 28.8746 190.875 28.589L193.454 28.2457C193.454 27.2061 192.889 26.6863 191.767 26.6863C190.635 26.6863 189.56 27.0232 188.541 27.697V25.4895C188.948 25.2778 189.506 25.0949 190.215 24.9344C190.923 24.774 191.568 24.6938 192.149 24.6938C194.859 24.6938 196.212 26.0446 196.212 28.7494V34.4254H196.209ZM193.454 30.5655V29.9238L191.728 30.1484C190.776 30.2735 190.301 30.7034 190.301 31.4382C190.301 31.7719 190.417 32.0446 190.648 32.2596C190.879 32.4746 191.193 32.5805 191.591 32.5805C192.142 32.5805 192.588 32.3912 192.934 32.0093C193.281 31.6275 193.454 31.1462 193.454 30.5655Z" fill="#CE123C"/>
<path id="Vector_19" d="M207.703 34.4254H204.781V29.1441C204.781 27.6713 204.255 26.9366 203.203 26.9366C202.697 26.9366 202.28 27.1323 201.953 27.5205C201.625 27.912 201.462 28.4061 201.462 29.0061V34.4254H198.531V24.9216H201.462V26.4264H201.5C202.2 25.2681 203.216 24.6906 204.554 24.6906C206.657 24.6906 207.706 25.9964 207.706 28.6082V34.4254H207.703Z" fill="#CE123C"/>
<path id="Vector_20" d="M217.218 34.0821C216.558 34.4639 215.602 34.6564 214.351 34.6564C212.892 34.6564 211.712 34.2136 210.807 33.328C209.903 32.4425 209.454 31.3034 209.454 29.9045C209.454 28.2906 209.938 27.0168 210.907 26.0863C211.875 25.1558 213.168 24.6906 214.787 24.6906C215.907 24.6906 216.718 24.8382 217.218 25.1365V27.6232C216.606 27.1644 215.923 26.9366 215.169 26.9366C214.329 26.9366 213.662 27.1836 213.171 27.6745C212.68 28.1654 212.433 28.8457 212.433 29.712C212.433 30.5526 212.667 31.2136 213.139 31.6917C213.61 32.1697 214.255 32.4104 215.079 32.4104C215.81 32.4104 216.522 32.1826 217.221 31.7238V34.0821H217.218Z" fill="#CE123C"/>
<path id="Vector_21" d="M227.673 30.5109H221.477C221.577 31.8906 222.446 32.5805 224.085 32.5805C225.13 32.5805 226.047 32.3334 226.839 31.8393V33.9537C225.961 34.4254 224.819 34.6596 223.417 34.6596C221.884 34.6596 220.695 34.2329 219.848 33.3826C219.001 32.5323 218.578 31.3452 218.578 29.8243C218.578 28.2457 219.037 26.9975 219.951 26.0767C220.865 25.1558 221.99 24.6938 223.328 24.6938C224.713 24.6938 225.784 25.1045 226.541 25.9291C227.298 26.7505 227.676 27.8703 227.676 29.2788V30.5109H227.673ZM224.954 28.7109C224.954 27.3505 224.402 26.6703 223.302 26.6703C222.831 26.6703 222.426 26.866 222.083 27.2542C221.74 27.6457 221.532 28.1302 221.458 28.7109H224.954Z" fill="#CE123C"/>
<path id="Vector_22" d="M146.926 28.6628C146.579 29.0382 146.053 29.282 145.457 29.282C144.873 29.282 144.357 29.0446 144.01 28.6852V34.419H146.929V28.6628H146.926Z" fill="#CE123C"/>
<path id="Vector_23" fill-rule="evenodd" clip-rule="evenodd" d="M77.6819 3.44983L64.3533 34.4767H71.3575L74.4812 27.2125H86.3506L89.099 34.5249H96.7383L83.4802 3.44983H77.6819ZM75.3086 22.22L80.3149 10.3194L85.3243 22.22H75.3086Z" fill="#CE123C"/>
</g>
</g>
</svg>
